{"title":"Transcendence 2014 720p WEB-DL x264-N3kr4","uid":10483788,"size":1233988834,"categoryP":"video","categoryS":"hd___movies","magnet":"?xt=urn:btih:599a3124d4d5e46da9a8617ccdf2f9a55471bcb4&amp;dn=Transcendence+2014+720p+WEB-DL+x264-N3kr4&amp;tr=udp%3A%2F%2Ftracker.openbittorrent.com%3A80&amp;tr=udp%3A%2F%2Fopen.demonii.com%3A1337&amp;tr=udp%3A%2F%2Ftracker.coppersurfer.tk%3A6969&amp;tr=udp%3A%2F%2Fexodus.desync.com%3A6969","seeders":2,"leechers":0,"uploader":"Falcon.G13","files":2,"time":1404433105,"description":"Transcendence (2014)\n 119 min - Drama | Mystery | Sci-Fi - 18 April 2014 (USA)\n6.4 Your rating: -/10 Ratings: 6.4/10 from 27,383 users Metascore: 42/100 \nReviews: 184 user | 264 critic | 45 from Metacritic.com\n\nA scientist's drive for artificial intelligence, takes on dangerous implications when his consciousness is uploaded into one such program.\n &lt;a href=&quot;\nhttp://i.imgur.com/OUMxd20.jpg&quot; rel=&quot;nofollow&quot; target=&quot;_NEW&quot;&gt;\nhttp://i.imgur.com/OUMxd20.jpg&lt;/a&gt; &lt;a href=&quot;\nhttp://i.imgur.com/VRdKrUn.jpg&quot; rel=&quot;nofollow&quot; target=&quot;_NEW&quot;&gt;\nhttp://i.imgur.com/VRdKrUn.jpg&lt;/a&gt; &lt;a href=&quot;\nhttp://i.imgur.com/UrzEfsD.jpg&quot; rel=&quot;nofollow&quot; target=&quot;_NEW&quot;&gt;\nhttp://i.imgur.com/UrzEfsD.jpg&lt;/a&gt; &lt;a href=&quot;\nhttp://i.imgur.com/iCQsXFi.jpg&quot; rel=&quot;nofollow&quot; target=&quot;_NEW&quot;&gt;\nhttp://i.imgur.com/iCQsXFi.jpg&lt;/a&gt; &lt;a href=&quot;\nhttp://i.imgur.com/esExXLQ.jpg&quot; rel=&quot;nofollow&quot; target=&quot;_NEW&quot;&gt;\nhttp://i.imgur.com/esExXLQ.jpg&lt;/a&gt; &lt;a href=&quot;\nhttp://i.imgur.com/P8Rc9qy.jpg&quot; rel=&quot;nofollow&quot; target=&quot;_NEW&quot;&gt;\nhttp://i.imgur.com/P8Rc9qy.jpg&lt;/a&gt; &lt;a href=&quot;\nhttp://i.imgur.com/8J9Q0Yu.jpg&quot; rel=&quot;nofollow&quot; target=&quot;_NEW&quot;&gt;\nhttp://i.imgur.com/8J9Q0Yu.jpg&lt;/a&gt; &lt;a href=&quot;\nhttp://i.imgur.com/04yQ96m.jpg&quot; rel=&quot;nofollow&quot; target=&quot;_NEW&quot;&gt;\nhttp://i.imgur.com/04yQ96m.jpg&lt;/a&gt;\n\nGeneral\nComplete name : Transcendence 2014 720p WEB-DL x264-N3kr4.mp4\nFormat : MPEG-4\nFormat profile : Base Media\nCodec ID : isom\nFile size : 1.15 GiB\nDuration : 1h 59mn\nOverall bit rate : 1 380 Kbps\nWriting application : Lavf55.7.100\n\nVideo\nID : 1\nFormat : AVC\nFormat/Info : Advanced Video Codec\nFormat profile : &lt;a class=&quot;__cf_email__&quot; href=&quot;/cdn-cgi/l/email-protection&quot; data-cfemail=&quot;175a767e79575b233927&quot;&gt;[email&amp;#160;protected]&lt;/a&gt;&lt;script cf-hash='f9e31' type=&quot;text/javascript&quot;&gt;\n/* &lt;![CDATA[ */!function(){try{var t=&quot;currentScript&quot;in document?document.currentScript:function(){for(var t=document.getElementsByTagName(&quot;script&quot;),e=t.length;e--;)if(t[e].getAttribute(&quot;cf-hash&quot;))return t[e]}();if(t&amp;&amp;t.previousSibling){var e,r,n,i,c=t.previousSibling,a=c.getAttribute(&quot;data-cfemail&quot;);if(a){for(e=&quot;&quot;,r=parseInt(a.substr(0,2),16),n=2;a.length-n;n+=2)i=parseInt(a.substr(n,2),16)^r,e+=String.fromCharCode(i);e=document.createTextNode(e),c.parentNode.replaceChild(e,c)}}}catch(u){}}();/* ]]&gt; */&lt;/script&gt;\nFormat settings, CABAC : Yes\nFormat settings, ReFrames : 3 frames\nCodec ID : avc1\nCodec ID/Info : Advanced Video Coding\nDuration : 1h 59mn\nBit rate : 989 Kbps\nWidth : 1 280 pixels\nHeight : 530 pixels\nDisplay aspect ratio : 2.40:1\nFrame rate mode : Constant\nFrame rate : 23.976 fps\nColor space : YUV\nChroma subsampling : 4:2:0\nBit depth : 8 bits\nScan type : Progressive\nBits/(Pixel*Frame) : 0.061\nStream size : 844 MiB (72%)\nLanguage : English\n\nAudio\nID : 2\nFormat : AAC\nFormat/Info : Advanced Audio Codec\nFormat profile : LC\nCodec ID : 40\nDuration : 1h 59mn\nBit rate mode : Constant\nBit rate : 384 Kbps\nChannel(s) : 2 channels\nChannel(s)_Original : 6 channels\nChannel positions : Front: L C R, Side: L R, LFE\nSampling rate : 96.0 KHz\nCompression mode : Lossy\nStream size : 327 MiB (28%)\nLanguage : English","torrent":{"xt":"urn:btih:599a3124d4d5e46da9a8617ccdf2f9a55471bcb4","amp;dn":"Transcendence+2014+720p+WEB-DL+x264-N3kr4","amp;tr":["udp%3A%2F%2Ftracker.openbittorrent.com%3A80","udp%3A%2F%2Fopen.demonii.com%3A1337","udp%3A%2F%2Ftracker.coppersurfer.tk%3A6969","udp%3A%2F%2Fexodus.desync.com%3A6969"],"infoHash":"599a3124d4d5e46da9a8617ccdf2f9a55471bcb4","infoHashBuffer":{"type":"Buffer","data":[89,154,49,36,212,213,228,109,169,168,97,124,205,242,249,165,84,113,188,180]},"announce":[],"urlList":[]}}